:SAMPLES-PER-SECOND 30
:FULLY-SPECIFIED
:DEGREES
291
root  2.88227 39.084 1.19807 6.40611 -62.4211 -6.397
RightUpLeg  -15.8864 4.04451 5.12815
RightLeg  29.9317 -3.85544 -2.6523
RightFoot  -5.61346 -0.242524 4.09864
RightToes  -1.28057e-009 0 -3.6325e-017
Spine  25.3946 -1.27377 -5.71959
Spine1  -7.87336 -3.31491 8.06026
HEad  -27.1411 -9.20761 6.85189
LeftShoulder1  0.839792 -5.25744 -1.29397
LeftArm  -15.018 -36.6511 -69.3828
LeftForeArm  -177.642 -77.4037 -140.911
LeftHand  1.16749 8.06039 46.7055
RightShoulder  0.51576 -0.195692 8.15198
RightArm  -25.8238 19.8847 45.0728
RightForeArm  172.296 75.0689 144.527
RightHand  -1.88532 -0.946935 -46.9443
LeftUpLeg  -14.794 -16.6754 -0.717669
LeftLeg  30.2865 23.0633 14.2348
LeftFoot  -11.3214 0.0684316 -7.11039
LeftToes  -7.27922e-012 9.28972e-011 -9.04533e-012
292
root  2.52496 39.2272 0.734588 17.7461 -59.5958 -17.9754
RightUpLeg  -14.9666 -7.95982 11.9778
RightLeg  25.3073 4.17138 1.95984
RightFoot  -2.87604 -0.341574 4.27875
RightToes  -1.28057e-009 0 -3.6325e-017
Spine  24.9829 -0.395179 -9.83199
Spine1  -8.0281 -4.70318 20.3511
HEad  -26.4721 -6.49379 7.05623
LeftShoulder1  0.670023 -4.86966 0.500001
LeftArm  5.20621 -42.3896 -79.4659
LeftForeArm  -169.126 -76.8758 -142.954
LeftHand  0.674541 6.95363 45.7141
RightShoulder  0.601011 0.0502066 9.64787
RightArm  -34.146 13.5541 40.2828
RightForeArm  157.163 78.1213 131.649
RightHand  -2.01653 -0.821559 -48.6204
LeftUpLeg  -17.8584 -26.4734 6.76707
LeftLeg  35.7653 28.7687 20.7224
LeftFoot  -10.4368 0.107406 -5.89467
LeftToes  -7.27922e-012 9.28972e-011 -9.04533e-012
293
root  2.18952 39.1712 0.422503 24.741 -56.7413 -24.9286
RightUpLeg  -15.2849 -17.5324 17.037
RightLeg  24.0125 11.5738 5.40641
RightFoot  -1.61044 -0.615249 7.11677
RightToes  -1.28057e-009 0 -3.6325e-017
Spine  24.0974 0.301598 -12.2317
Spine1  -7.59262 -5.48326 28.4339
HEad  -26.5964 -5.63411 7.91774
LeftShoulder1  0.517723 -4.68391 2.41227
LeftArm  27.672 -43.8884 -91.4141
LeftForeArm  167.09 -81.2329 -114.067
LeftHand  -0.0276432 5.27015 45.8233
RightShoulder  0.690605 0.122254 12.0199
RightArm  -39.1001 5.34816 38.9665
RightForeArm  127.013 80.8593 101.893
RightHand  -2.28577 -0.375381 -49.9889
LeftUpLeg  -21.2947 -30.9264 12.4392
LeftLeg  40.9887 30.7776 25.7302
LeftFoot  -9.75653 0.0889119 -2.24024
LeftToes  -7.27922e-012 9.28972e-011 -9.04533e-012
294
root  1.98761 39.085 0.278731 26.6135 -55.4855 -26.7177
RightUpLeg  -15.83 -20.3285 18.705
RightLeg  24.6465 13.9599 6.6909
RightFoot  -1.90619 -0.794656 9.46515
RightToes  -1.28057e-009 0 -3.6325e-017
Spine  23.5782 0.571588 -13.0427
Spine1  -6.67377 -5.79523 30.2891
HEad  -27.6932 -6.00998 9.33429
LeftShoulder1  0.448794 -4.66141 3.35303
LeftArm  45.6291 -40.0698 -99.5442
LeftForeArm  101.745 -78.9107 -45.4034
LeftHand  -0.640898 3.81763 46.2282
RightShoulder  0.875893 0.476528 15.2644
RightArm  -41.1928 -3.42028 40.7636
RightForeArm  82.0125 79.3502 57.9456
RightHand  -2.63409 0.258363 -50.992
LeftUpLeg  -22.9058 -31.2573 14.3592
LeftLeg  42.9346 30.265 26.9393
LeftFoot  -9.28987 0.0634232 -0.322119
LeftToes  -7.27922e-012 9.28972e-011 -9.04533e-012
295
root  1.95966 38.9542 0.334329 23.9429 -55.777 -24.3306
RightUpLeg  -16.1674 -16.7091 17.2946
RightLeg  26.5979 9.56612 4.92161
RightFoot  -3.51044 -0.597416 8.26748
RightToes  -1.28057e-009 0 -3.6325e-017
Spine  23.7309 0.255019 -12.3788
Spine1  -5.16706 -6.03611 27.5597
HEad  -29.8266 -6.88403 9.7774
LeftShoulder1  0.605767 -4.79653 1.31112
LeftArm  54.6611 -33.4139 -99.7704
LeftForeArm  76.5883 -66.8409 -18.0087
LeftHand  -0.664095 3.79419 47.2127
RightShoulder  1.15462 1.21091 18.0065
RightArm  -40.2624 -9.73928 44.4616
RightForeArm  50.5634 71.3241 28.755
RightHand  -2.67625 0.332133 -51.1036
LeftUpLeg  -22.2441 -29.1069 12.6668
LeftLeg  41.9075 27.0817 23.9407
LeftFoot  -9.99616 0.080965 -2.25223
LeftToes  -7.27922e-012 9.28972e-011 -9.04533e-012
296
root  2.01639 38.7844 0.609826 17.4624 -56.5302 -18.4175
RightUpLeg  -16.1811 -9.54818 13.8231
RightLeg  29.7082 0.93686 0.320875
RightFoot  -5.58382 -0.310395 5.44145
RightToes  -1.28057e-009 0 -3.6325e-017
Spine  24.0593 -0.579297 -10.7767
Spine1  -3.16788 -6.31374 22.5507
HEad  -32.3878 -8.4477 8.47711
LeftShoulder1  1.08731 -5.32513 -4.34059
LeftArm  55.5028 -26.7373 -93.2535
LeftForeArm  66.8679 -53.4493 -9.81729
LeftHand  -0.247228 4.76958 47.8503
RightShoulder  1.4036 1.95723 19.3212
RightArm  -34.8539 -12.0348 48.3259
RightForeArm  35.7152 59.1282 15.4596
RightHand  -2.44105 -0.0109034 -49.7748
LeftUpLeg  -19.884 -24.5029 8.29961
LeftLeg  39.0317 21.6306 18.1146
LeftFoot  -11.7928 0.0565625 -4.50218
LeftToes  -7.27922e-012 9.28972e-011 -9.04533e-012
297
root  2.05521 38.6681 1.09137 8.12923 -57.2023 -9.27693
RightUpLeg  -16.084 0.0296054 8.52904
RightLeg  34.1661 -7.86577 -5.98235
RightFoot  -7.23221 -0.250933 5.78354
RightToes  -1.28057e-009 0 -3.6325e-017
Spine  23.5133 -1.84022 -8.54215
Spine1  -1.06585 -6.25419 15.1659
HEad  -34.0465 -11.1549 6.31218
LeftShoulder1  1.74598 -6.07491 -11.0378
LeftArm  49.2535 -20.6587 -82.7989
LeftForeArm  57.0335 -43.083 -6.7202
LeftHand  0.218227 5.83229 47.7677
RightShoulder  1.49802 2.29025 19.4709
RightArm  -23.8392 -12.192 52.1667
RightForeArm  31.7221 49.9911 10.7537
RightHand  -2.21746 -0.272677 -47.8026
LeftUpLeg  -16.7017 -16.3515 1.90568
LeftLeg  35.1495 15.0552 11.4826
LeftFoot  -13.0975 0.0290312 -3.29077
LeftToes  -7.27922e-012 9.28972e-011 -9.04533e-012
298
root  2.04889 38.5904 1.70649 -3.10478 -57.8611 2.45169
RightUpLeg  -16.5544 10.9465 1.8353
RightLeg  40.5061 -13.8557 -12.6163
RightFoot  -7.95913 -0.355685 10.0348
RightToes  -1.28057e-009 0 -3.6325e-017
Spine  21.4486 -3.42793 -5.38031
Spine1  0.91587 -5.42035 4.30053
HEad  -33.7978 -14.3865 4.45265
LeftShoulder1  2.11499 -6.34627 -14.627
LeftArm  36.156 -14.3986 -72.2348
LeftForeArm  48.2483 -39.3063 -6.18169
LeftHand  0.271705 5.96152 47.2312
RightShoulder  1.39616 2.03195 18.7757
RightArm  -10.0842 -12.1193 57.4205
RightForeArm  35.5478 49.5016 10.4341
RightHand  -2.00875 -0.543858 -45.946
LeftUpLeg  -13.5953 -4.62794 -5.46817
LeftLeg  31.4123 7.62071 5.36902
LeftFoot  -12.8546 0.0684219 -0.375399
LeftToes  -7.27922e-012 9.28972e-011 -9.04533e-012
299
root  2.01112 38.5764 2.33098 -14.3468 -58.3769 14.4272
RightUpLeg  -17.4349 20.301 -4.52042
RightLeg  46.8176 -16.6259 -18.3301
RightFoot  -6.87812 -0.591192 13.8587
RightToes  -1.28057e-009 0 -3.6325e-017
Spine  18.636 -4.85079 -1.73359
Spine1  2.51004 -3.94211 -7.99674
HEad  -31.7657 -16.7016 2.95129
LeftShoulder1  1.95636 -5.81588 -14.052
LeftArm  19.8378 -8.42054 -64.5775
LeftForeArm  43.301 -42.0176 -7.27717
LeftHand  0.221806 5.84255 47.4383
RightShoulder  1.16877 1.43869 17.0718
RightArm  2.50177 -10.5971 64.0648
RightForeArm  45.1107 55.2234 12.3719
RightHand  -1.7871 -0.894208 -44.265
LeftUpLeg  -10.8398 7.91782 -11.7591
LeftLeg  28.4075 -0.209433 0.247658
LeftFoot  -10.9649 0.0681952 0.536577
LeftToes  -7.27922e-012 9.28972e-011 -9.04533e-012
